<svg version="1.1" id="Layer_1" xmlns="http://www.w3.org/2000/svg" xmlns:xlink="http://www.w3.org/1999/xlink" x="0px" y="0px"
	 width="100%" viewBox="0 0 1024 1024" enable-background="new 0 0 1024 1024" xml:space="preserve">
<path fill="#000000" opacity="1.000000" stroke="none" 
	d="
M857.273682,554.015137 
	C857.250000,563.178040 857.060913,571.847046 857.232300,580.508850 
	C857.878174,613.148438 850.386230,644.256348 839.083618,674.519348 
	C822.728088,718.311951 797.206299,756.203125 763.314270,788.323547 
	C734.496216,815.635315 701.466675,836.633972 664.897034,852.075867 
	C662.596130,853.047546 660.412842,854.472229 658.021973,855.022888 
	C651.448730,856.536682 649.569031,860.536865 650.270447,866.929260 
	C653.192932,893.564453 638.346008,903.167908 619.567383,911.018982 
	C601.646606,918.511414 582.387939,920.744751 563.310913,923.233032 
	C545.174316,925.598511 526.937866,925.710815 508.626526,925.772705 
	C480.375275,925.868164 452.479095,923.523438 424.953613,917.557495 
	C412.810486,914.925659 400.908508,910.851807 390.207031,904.156799 
	C379.304657,897.336182 372.891205,887.236450 374.182739,874.543152 
	C375.483765,861.756653 370.824402,856.215271 358.971252,851.584412 
	C325.865417,838.650513 295.959839,819.819031 269.093750,796.493591 
	C239.815643,771.073975 216.946060,740.537231 198.862213,706.328979 
	C183.060242,676.437317 173.009445,644.775757 168.504822,611.222961 
	C165.582153,589.453552 165.881958,567.566895 167.334793,545.923279 
	C169.223480,517.786499 187.155045,498.745514 209.254059,483.418579 
	C239.093765,462.723083 272.685944,450.588257 307.478577,441.471619 
	C311.855408,440.324768 312.873291,438.575378 312.866943,434.423767 
	C312.749542,357.432281 312.795349,280.440552 312.736755,203.448959 
	C312.716278,176.564545 324.685852,155.917786 345.442596,139.764053 
	C359.653381,128.704681 375.743042,123.806862 393.795929,123.884560 
	C450.788788,124.129829 507.783905,124.111404 564.776917,123.886269 
	C580.163452,123.825485 592.946838,128.863022 603.813232,139.690659 
	C635.089600,170.855667 666.495605,201.890747 697.887939,232.939209 
	C707.004517,241.955902 711.282104,252.498291 711.206787,265.597565 
	C710.885559,321.422485 711.183777,377.250732 711.034241,433.077179 
	C711.020447,438.219971 712.195801,440.496857 717.588318,441.850586 
	C746.439514,449.093353 774.380005,458.957428 800.155518,474.047546 
	C817.800659,484.377716 833.953308,496.568054 845.465698,514.025757 
	C853.403442,526.062805 857.904602,538.987549 857.273682,554.015137 
M769.287781,618.913513 
	C765.572388,620.384583 761.895020,621.961731 758.135559,623.310120 
	C725.310730,635.083618 691.507629,643.010925 657.322754,649.706848 
	C622.752930,656.478149 587.771606,659.677246 552.748474,660.742981 
	C512.682556,661.962097 472.521545,662.168640 432.468445,658.369751 
	C412.592316,656.484497 392.776245,654.237427 373.105530,650.960449 
	C338.580688,645.208984 304.544739,637.252747 271.574829,625.375854 
	C245.028137,615.812805 219.217087,604.637451 197.190460,586.351501 
	C196.495148,585.774292 195.729645,584.864136 194.529160,585.712402 
	C193.806488,589.525696 194.895584,593.280640 195.182709,597.074768 
	C197.597336,628.984497 205.961014,659.275574 220.274734,687.874329 
	C248.859085,744.985901 292.711945,786.872559 348.883179,816.414734 
	C394.525909,840.419678 443.544434,851.623230 494.689423,853.672607 
	C517.592957,854.590271 540.565247,853.834778 563.430847,850.808960 
	C590.963013,847.165649 617.772766,840.803467 643.661743,830.877686 
	C685.333557,814.900757 721.895813,790.903931 752.882690,758.783264 
	C794.575256,715.565186 820.897827,664.640137 828.381958,604.610474 
	C829.207703,597.987122 830.620911,591.310730 829.269043,583.808044 
	C811.196655,599.159973 791.496338,610.449097 769.287781,618.913513 
M340.187286,286.500000 
	C340.187286,345.576721 340.187286,404.653442 340.187286,464.301331 
	C351.369110,461.893890 362.007233,460.526306 372.558746,461.813385 
	C380.076752,462.730469 383.698364,460.325623 387.532196,453.803528 
	C402.099030,429.022430 424.729767,416.034363 453.014496,413.949036 
	C472.750244,412.493927 491.361206,417.566559 507.646698,429.370331 
	C510.660187,431.554535 512.588562,431.187042 515.497314,429.159637 
	C537.120056,414.088501 561.025879,410.099243 586.404541,416.200500 
	C610.824341,422.071259 628.312805,437.223663 640.186584,459.078918 
	C641.540405,461.570892 642.711426,462.619995 645.949341,462.113678 
	C652.152527,461.143646 658.421753,460.562775 664.822327,461.351654 
	C670.656006,462.070709 676.367371,464.027893 682.276123,463.719574 
	C683.261475,461.520844 682.908508,459.495209 682.909485,457.531311 
	C682.936768,400.367371 682.941772,343.203400 682.934265,286.039459 
	C682.932922,275.921631 682.900208,275.919128 672.508789,275.915039 
	C649.676392,275.906067 626.843201,276.009460 604.011719,275.860565 
	C582.852783,275.722595 567.816040,260.530457 567.765808,239.432892 
	C567.701965,212.600800 567.717163,185.768509 567.713013,158.936295 
	C567.711853,151.277817 567.735413,151.268723 560.194580,151.266953 
	C504.530273,151.253876 448.865997,151.249527 393.201691,151.228882 
	C385.371246,151.225967 377.873291,152.940536 371.162689,156.824356 
	C351.742493,168.064011 340.504517,184.604462 340.288635,207.504089 
	C340.043518,233.500732 340.203125,259.501190 340.187286,286.500000 
M689.333618,498.189026 
	C674.245300,488.300171 658.161987,485.503845 640.747742,491.020477 
	C637.192017,492.146851 633.675781,493.857208 629.591858,492.905701 
	C622.467468,491.245758 620.996460,485.316467 618.862305,479.691040 
	C601.826538,434.787720 552.217590,431.648560 523.844116,456.980133 
	C514.973816,464.899536 510.316650,469.095764 497.874664,457.210266 
	C480.247253,440.371246 454.801636,436.653351 433.964752,447.048126 
	C419.098145,454.464630 409.337830,466.496796 404.365234,482.441620 
	C401.282562,492.326324 395.695862,495.087830 386.010712,491.945770 
	C385.059723,491.637238 384.105347,491.339203 383.151215,491.040466 
	C365.694000,485.575989 349.337036,488.023224 333.911591,497.723541 
	C320.281219,506.294952 311.111938,518.362549 305.230164,533.214478 
	C301.558990,542.484497 296.519806,544.660339 287.114716,541.710449 
	C282.198608,540.168579 277.282196,538.503235 272.062561,538.379211 
	C253.602875,537.940491 232.664032,552.454224 226.132629,570.007202 
	C225.365479,572.068909 225.908447,573.048401 227.604019,574.032104 
	C237.399185,579.714844 247.254684,585.246826 257.629852,589.861084 
	C290.232300,604.360291 324.416687,613.503784 359.336273,620.161255 
	C397.839050,627.502014 436.595673,632.295410 475.866821,633.220032 
	C493.852142,633.643433 511.827515,633.420227 529.804138,633.769714 
	C537.944763,633.928040 546.110962,633.974915 554.234375,633.517944 
	C565.770081,632.869019 577.266663,631.546814 588.798767,630.805847 
	C605.053955,629.761230 621.256348,627.902283 637.271240,625.265564 
	C671.259216,619.669983 704.886414,612.397156 737.581299,601.121765 
	C757.840027,594.135193 777.057129,585.153015 795.593872,574.538696 
	C797.608643,573.385071 798.753662,572.252930 797.375916,569.840881 
	C789.962708,556.862000 779.979248,546.718079 765.781555,541.296753 
	C756.190674,537.634521 746.639404,537.998352 737.040588,541.640991 
	C728.187012,545.000854 723.740173,543.058899 719.668274,534.619507 
	C719.089233,533.419250 718.543762,532.202209 718.005371,530.982971 
	C711.967285,517.307739 702.168457,506.882324 689.333618,498.189026 
M583.261780,892.003967 
	C584.718506,891.040344 586.423462,891.082947 588.053711,890.784180 
	C598.549683,888.860168 608.777039,886.154358 617.922546,880.352661 
	C619.937378,879.074463 621.642578,877.572021 622.310303,875.146790 
	C623.648865,870.285461 621.405334,867.994568 616.521606,869.035645 
	C609.054504,870.627686 601.559753,872.094421 594.061890,873.536804 
	C582.506165,875.759766 571.011108,878.487976 559.359558,879.983215 
	C535.372070,883.061401 511.194702,882.709229 487.112457,881.718994 
	C460.185333,880.611755 433.639862,876.274536 407.573151,869.250793 
	C402.591339,867.908447 401.340515,869.196106 402.133392,874.313416 
	C402.496338,876.655945 403.766785,878.441223 405.627777,879.543518 
	C409.307861,881.723389 413.008240,884.051941 416.998047,885.496277 
	C443.113403,894.950500 470.281586,897.591064 497.847565,897.801392 
	C526.249390,898.018127 554.586670,897.588806 583.261780,892.003967 
M652.499207,247.777130 
	C658.669250,247.777130 664.839294,247.777130 671.009399,247.777130 
	C671.143799,247.246216 671.278198,246.715302 671.412598,246.184402 
	C646.370972,221.522858 621.329346,196.861328 596.229797,172.142700 
	C594.862366,173.701675 595.319885,175.082733 595.318054,176.340439 
	C595.289429,195.804352 595.293640,215.268341 595.304871,234.732300 
	C595.310425,244.224533 597.983215,248.306152 608.084106,247.960190 
	C622.541077,247.465042 637.026428,247.796707 652.499207,247.777130 
M730.398193,474.440735 
	C724.381714,472.208801 718.423828,469.759888 711.886414,469.011475 
	C710.554260,474.617737 711.302063,478.910217 715.798828,482.620300 
	C723.265930,488.780914 730.451904,495.674713 734.471375,504.439026 
	C737.808411,511.715485 742.777527,512.147522 749.076843,511.534302 
	C749.242493,511.518188 749.408752,511.505035 749.575012,511.499329 
	C770.417603,510.786957 788.297424,517.789246 803.530029,531.963928 
	C810.526123,538.474182 815.859192,546.223083 820.736328,554.617065 
	C825.018005,552.147949 827.078674,549.308411 826.916748,544.407104 
	C826.742371,539.130432 825.076294,534.633789 822.167969,530.491394 
	C817.759766,524.212708 812.741516,518.472290 806.870605,513.470032 
	C784.655212,494.541504 758.224487,483.869507 730.398193,474.440735 
M270.152100,482.618744 
	C250.836899,490.188141 232.383530,499.315033 216.702881,513.184326 
	C207.243561,521.550964 199.054764,530.790771 196.786560,543.973938 
	C195.868149,549.311951 198.119217,552.430542 201.978424,554.981018 
	C203.398895,554.511414 203.654114,553.463745 204.136063,552.619507 
	C221.271515,522.600769 246.652954,508.219482 281.493622,511.995026 
	C284.158752,512.283813 285.277679,511.421875 286.501923,509.252289 
	C292.670898,498.319580 299.918915,488.221802 309.913330,480.364868 
	C313.752960,477.346313 312.928711,473.539429 311.843323,469.213898 
	C297.605408,472.560669 284.462433,478.156464 270.152100,482.618744 
z"/>
<path fill="#000000" opacity="1.000000" stroke="none" 
	d="
M534.195190,352.570068 
	C563.666138,352.588562 592.657898,352.582397 621.649475,352.642151 
	C628.824951,352.656921 633.130005,355.689331 634.935608,361.679138 
	C636.441772,366.675690 633.971741,373.009796 629.165283,376.620148 
	C625.998718,378.998749 622.329834,378.950256 618.648682,378.950287 
	C567.163391,378.950653 515.678101,378.962372 464.192810,378.957336 
	C444.198578,378.955383 424.203613,379.010834 404.210388,378.858337 
	C394.260620,378.782471 389.153625,375.127167 387.219116,367.357239 
	C385.692261,361.224579 390.536469,353.680359 396.818024,352.760834 
	C400.265106,352.256195 403.783752,352.037994 407.270294,352.036377 
	C445.759186,352.018707 484.248138,352.056641 522.736938,352.120941 
	C526.396912,352.127045 530.056274,352.413452 534.195190,352.570068 
z"/>
<path fill="#000000" opacity="1.000000" stroke="none" 
	d="
M449.000061,291.668854 
	C476.818146,291.667236 504.136230,291.660858 531.454285,291.667267 
	C540.502075,291.669373 546.243225,296.805969 546.266174,304.877716 
	C546.288818,312.855774 540.335266,318.345764 531.556396,318.347137 
	C488.247345,318.354065 444.938293,318.347565 401.629242,318.327667 
	C393.036530,318.323730 386.697662,312.587006 386.734283,304.939728 
	C386.773743,296.702148 392.207001,291.727844 401.526428,291.682465 
	C417.183960,291.606201 432.842163,291.666351 449.000061,291.668854 
z"/>
<path fill="#000000" opacity="1.000000" stroke="none" 
	d="
M421.000000,232.000092 
	C449.291870,232.188385 477.083679,232.392334 504.875702,232.550354 
	C510.947174,232.584885 515.711548,236.005493 517.072205,241.514145 
	C518.616150,247.764664 515.816406,253.826859 510.116058,256.555725 
	C507.819519,257.655151 505.380981,258.046967 502.848419,258.049561 
	C469.390503,258.083527 435.932556,258.130463 402.474640,258.169434 
	C398.913055,258.173584 395.492950,257.530731 392.553192,255.404938 
	C388.247284,252.291229 386.115387,247.114944 387.228607,242.823715 
	C388.801605,236.760101 393.443420,232.432602 399.531952,232.149017 
	C406.508514,231.824081 413.509613,232.026138 421.000000,232.000092 
z"/>
<path fill="#000000" opacity="1.000000" stroke="none" 
	d="
M616.164429,585.743286 
	C620.487610,590.304016 621.789062,595.273743 619.160950,600.652588 
	C616.589783,605.914978 611.853455,607.378174 606.230042,607.239563 
	C598.576904,607.050903 590.914734,607.249756 583.256531,607.233032 
	C576.245789,607.217712 570.507751,602.337280 570.115967,596.130615 
	C569.675476,589.153809 574.804321,583.501892 582.456665,583.240601 
	C591.436462,582.934021 600.433533,583.107849 609.422913,583.127197 
	C611.823425,583.132324 613.986572,583.973022 616.164429,585.743286 
z"/>
<path fill="#000000" opacity="1.000000" stroke="none" 
	d="
M430.673706,589.956299 
	C433.175568,585.105103 436.945221,583.512756 441.922272,583.564392 
	C449.396149,583.641968 456.875122,583.341614 464.350372,583.143677 
	C473.134583,582.911133 478.522461,587.532288 478.599365,595.442810 
	C478.667786,602.481689 473.231293,607.143372 464.816345,607.181213 
	C457.500763,607.214050 450.184784,607.188599 442.869080,607.161987 
	C432.490143,607.124268 427.651489,600.509399 430.673706,589.956299 
z"/>
<path fill="#000000" opacity="1.000000" stroke="none" 
	d="
M641.550842,538.238647 
	C634.116760,535.865601 630.237793,530.916626 630.987244,525.289490 
	C631.820862,519.031250 636.717407,515.119263 644.225403,514.969360 
	C650.704529,514.839966 657.189880,514.832214 663.669189,514.950256 
	C670.840820,515.080811 676.217102,520.180115 676.133301,526.536011 
	C676.042480,533.424011 670.870117,538.266541 663.429504,538.309326 
	C656.283508,538.350464 649.137024,538.288330 641.550842,538.238647 
z"/>
<path fill="#000000" opacity="1.000000" stroke="none" 
	d="
M586.839844,546.975586 
	C581.864868,546.997925 577.366028,547.099365 572.870361,547.020386 
	C565.743652,546.895264 560.131775,541.541870 560.101807,534.976807 
	C560.072693,528.594849 565.376648,523.194824 572.354980,522.917419 
	C578.342834,522.679321 584.347412,522.782593 590.343323,522.847290 
	C597.576294,522.925232 602.544495,527.360596 602.769592,533.795166 
	C603.036316,541.419800 598.488770,546.428284 590.814758,546.928711 
	C589.652954,547.004517 588.483459,546.961670 586.839844,546.975586 
z"/>
<path fill="#000000" opacity="1.000000" stroke="none" 
	d="
M757.005859,562.847412 
	C762.319153,567.897217 763.873230,573.471863 761.688538,578.724121 
	C759.462585,584.075684 754.319336,587.519836 748.863098,587.312622 
	C742.928772,587.087280 738.244690,583.486389 736.398865,577.585327 
	C734.656494,572.015015 736.671631,567.405029 740.633911,563.648438 
	C745.095154,559.418823 750.113220,559.253662 757.005859,562.847412 
z"/>
<path fill="#000000" opacity="1.000000" stroke="none" 
	d="
M468.620972,508.129150 
	C467.782532,500.521301 471.314331,494.520569 477.582581,492.337280 
	C483.221436,490.373230 490.016632,492.895844 493.218231,498.141632 
	C497.289520,504.812408 495.247681,512.443970 488.281189,516.594360 
	C482.088989,520.283447 474.202118,518.320679 470.440277,512.102844 
	C469.756134,510.972046 469.297913,509.704559 468.620972,508.129150 
z"/>
<path fill="#000000" opacity="1.000000" stroke="none" 
	d="
M453.066833,549.627197 
	C443.765869,551.393677 437.471741,547.770996 435.870392,540.093689 
	C434.359283,532.848999 439.127563,525.614380 446.499054,523.967590 
	C453.569397,522.388123 460.799591,527.242493 462.505646,534.714417 
	C463.833862,540.531494 460.204071,546.457336 453.066833,549.627197 
z"/>
<path fill="#000000" opacity="1.000000" stroke="none" 
	d="
M691.567017,560.959473 
	C689.688904,552.373535 694.405334,544.791626 702.214600,543.244080 
	C709.454895,541.809265 716.579834,547.283264 717.731567,555.190613 
	C718.525391,560.640686 715.871582,564.415649 711.664368,567.364807 
	C707.505005,570.280457 703.104553,570.730164 698.556152,568.326416 
	C695.543030,566.734009 693.214172,564.423096 691.567017,560.959473 
z"/>
<path fill="#000000" opacity="1.000000" stroke="none" 
	d="
M447.074524,482.227936 
	C440.663452,476.874664 439.146912,471.897614 441.838287,465.906433 
	C444.457703,460.075409 449.733459,456.645020 455.061981,457.308136 
	C460.610046,457.998566 465.227112,461.957977 466.761108,467.420532 
	C468.406982,473.281586 466.091644,477.999512 461.778595,481.565430 
	C457.416992,485.171478 452.390015,485.357849 447.074524,482.227936 
z"/>
<path fill="#000000" opacity="1.000000" stroke="none" 
	d="
M316.286957,575.818787 
	C311.250702,584.536987 303.018188,587.110779 296.128876,582.455811 
	C290.537231,578.677612 288.716248,571.755249 291.747864,565.801025 
	C294.894562,559.620728 302.317780,556.651489 308.728363,559.009033 
	C314.738068,561.219116 318.226501,568.677917 316.286957,575.818787 
z"/>
<path fill="#000000" opacity="1.000000" stroke="none" 
	d="
M351.473267,595.421021 
	C344.692596,601.087036 337.149109,600.689453 331.808838,594.661926 
	C327.325775,589.601929 327.739014,581.628662 332.744537,576.608826 
	C337.689880,571.649475 345.329041,571.482300 350.748291,576.214844 
	C356.611664,581.335205 356.994019,588.595398 351.473267,595.421021 
z"/>
<path fill="#000000" opacity="1.000000" stroke="none" 
	d="
M358.222626,530.244629 
	C357.019287,541.728699 348.614594,547.605347 339.757660,543.593872 
	C333.977173,540.975769 330.940643,535.585022 331.796326,529.460205 
	C332.617584,523.581848 337.624359,518.526611 343.276947,517.868469 
	C348.737701,517.232544 354.974854,521.062256 357.200958,526.479980 
	C357.640991,527.550964 357.866486,528.710022 358.222626,530.244629 
z"/>
<path fill="#000000" opacity="1.000000" stroke="none" 
	d="
M578.386169,487.773132 
	C571.391479,484.367371 568.377563,479.069763 569.685059,472.948181 
	C570.906738,467.228760 576.595337,462.159210 582.238403,461.760864 
	C588.153870,461.343292 593.538086,465.371521 595.539368,471.712036 
	C598.574707,481.328979 589.414856,490.160675 578.386169,487.773132 
z"/>
<path fill="#000000" opacity="1.000000" stroke="none" 
	d="
M249.669891,571.023193 
	C250.457962,562.643616 256.464081,557.219360 263.868652,557.769653 
	C270.395874,558.254761 276.186310,564.541565 276.225098,571.185364 
	C276.263611,577.789612 269.907043,584.154785 263.076630,584.351746 
	C255.509598,584.569824 250.169052,579.433655 249.669891,571.023193 
z"/>
<path fill="#000000" opacity="1.000000" stroke="none" 
	d="
M654.193481,580.585815 
	C657.146912,575.111267 661.346741,572.131409 667.275330,572.471619 
	C672.043335,572.745178 675.886108,574.975098 678.092773,579.413025 
	C680.813171,584.884216 679.623474,591.455750 675.282654,595.480652 
	C671.197388,599.268555 664.304138,599.893494 659.479675,596.940857 
	C654.722290,594.029297 650.877441,586.909302 654.193481,580.585815 
z"/>
<path fill="#000000" opacity="1.000000" stroke="none" 
	d="
M507.758362,574.164795 
	C502.634033,566.175293 504.005035,558.139526 510.922729,553.997253 
	C517.456360,550.084961 525.311584,552.550720 529.007507,559.674011 
	C531.921936,565.291077 530.388000,572.347717 525.398560,576.276489 
	C519.900208,580.605957 514.176453,580.010742 507.758362,574.164795 
z"/>
<path fill="#000000" opacity="1.000000" stroke="none" 
	d="
M544.765015,480.306396 
	C550.884216,489.354980 548.640442,498.840240 539.947083,502.055023 
	C534.011841,504.249908 527.867493,502.113129 524.351624,496.631561 
	C521.138916,491.622650 521.969421,484.657349 526.321899,480.106567 
	C530.828979,475.394135 536.324463,474.738831 542.098389,478.261536 
	C542.945068,478.778076 543.703430,479.439270 544.765015,480.306396 
z"/>
<path fill="#000000" opacity="1.000000" stroke="none" 
	d="
M523.915527,597.666565 
	C531.614563,598.979065 536.470703,604.127625 536.854187,610.956848 
	C537.140686,616.058838 533.051880,621.823853 527.972717,623.479370 
	C522.020508,625.419434 515.584473,623.153320 512.391541,617.817993 
	C506.826508,608.519165 514.320496,597.259827 523.915527,597.666565 
z"/>
<path fill="#000000" opacity="1.000000" stroke="none" 
	d="
M408.271606,530.507812 
	C401.439148,529.236511 396.425537,524.106445 395.963470,518.262634 
	C395.543579,512.952332 399.466827,507.286407 404.976807,505.245636 
	C410.685699,503.131195 416.058716,504.831635 419.868652,509.958710 
	C423.427307,514.747681 423.166107,521.107544 419.219910,526.100281 
	C416.511932,529.526428 412.857849,530.683655 408.271606,530.507812 
z"/>
<path fill="#000000" opacity="1.000000" stroke="none" 
	d="
M371.752686,587.832703 
	C369.832825,580.270508 373.104126,573.982300 379.868164,571.625305 
	C386.365692,569.361145 393.336761,572.201538 396.227264,578.290833 
	C399.122162,584.389465 396.694885,591.326477 390.432678,594.851196 
	C384.413910,598.238831 377.493927,596.617188 373.331207,590.805176 
	C372.756531,590.002869 372.355530,589.076111 371.752686,587.832703 
z"/>
</svg>